<svg xmlns="http://www.w3.org/2000/svg" xmlns:xlink="http://www.w3.org/1999/xlink"><defs><symbol fill="none" viewBox="0 0 22 20" id="arrow-left"><path d="M18.636 19.582a1.421 1.421 0 01-2.014 0 1.426 1.426 0 010-2.014c3.138-3.139 3.138-8.244 0-11.383-3.137-3.136-8.245-3.136-11.381 0l-.515.515h3.397a1.425 1.425 0 010 2.847h-6.7A1.423 1.423 0 010 8.123v-6.7a1.425 1.425 0 012.847 0v3.13l.38-.38c4.249-4.249 11.16-4.249 15.409 0 4.249 4.25 4.249 11.16 0 15.41z" fill="#639EFF" /></symbol><symbol fill="none" viewBox="0 0 22 20" id="arrow-right"><path d="M3.187 19.582a1.421 1.421 0 002.014 0 1.426 1.426 0 000-2.014c-3.139-3.139-3.139-8.244 0-11.383 3.136-3.136 8.244-3.136 11.38 0l.516.515h-3.398a1.425 1.425 0 000 2.847h6.7c.785 0 1.424-.636 1.424-1.424v-6.7a1.425 1.425 0 00-2.847 0v3.13l-.38-.38c-4.249-4.249-11.16-4.249-15.41 0-4.248 4.25-4.248 11.16 0 15.41z" fill="#639EFF" /></symbol><symbol fill="none" viewBox="0 0 22 20" id="image"><path d="M20.565.078H1.435C.643.078 0 .722 0 1.513v16.974c0 .791.643 1.435 1.435 1.435h19.13c.792 0 1.435-.644 1.435-1.435V1.513c0-.791-.643-1.435-1.435-1.435zM19.13 17.052H2.87v-.725l3.08-3.08 1.437 1.435c.56.562 1.468.562 2.028.003l5.67-5.67 4.045 4.046v3.991zm0-8.047l-3.032-3.034a1.438 1.438 0 00-2.03 0l-5.667 5.67-1.438-1.438a1.435 1.435 0 00-2.027 0L2.87 12.27V2.95h16.26v6.056z" fill="#639EFF" /></symbol><symbol fill="none" viewBox="0 0 20 23" id="text"><path d="M20 1.5v2.508a1.496 1.496 0 11-2.992 0V3h-5.512v17h1.35c.827 0 1.496.672 1.496 1.5s-.669 1.5-1.497 1.5h-5.69a1.498 1.498 0 01-1.497-1.5c0-.828.669-1.5 1.497-1.5h1.349V3H2.993v1.008a1.496 1.496 0 11-2.993 0V1.5C0 .672.668 0 1.496 0h17.008C19.332 0 20 .672 20 1.5z" fill="#639EFF" /></symbol><symbol fill="none" viewBox="0 0 28 28" id="text-two"><path d="M13.488 9.742v1.318a1.681 1.681 0 01-3.321.362H9.005v7.165a1.68 1.68 0 01-.18 3.352H5.825c-.93 0-1.68-.751-1.68-1.68 0-.866.655-1.58 1.5-1.672v-7.165H4.48a1.681 1.681 0 01-3.32-.361V9.74c0-.929.752-1.68 1.68-1.68h8.968c.926 0 1.68.751 1.68 1.68zM26.92 9.742v1.318a1.68 1.68 0 01-3.322.362h-1.162v7.165a1.68 1.68 0 01-.18 3.352h-3c-.93 0-1.68-.751-1.68-1.68 0-.866.655-1.58 1.5-1.672v-7.165h-1.162a1.682 1.682 0 01-3.323-.362V9.742c0-.93.753-1.68 1.68-1.68h8.968c.93 0 1.68.75 1.68 1.68z" fill="#639EFF" /></symbol></defs></svg>